<?xml version="1.0" encoding="utf-8"?>
<!-- Generator: Adobe Illustrator 24.2.3, SVG Export Plug-In . SVG Version: 6.00 Build 0)  -->
<svg version="1.1" id="Layer_1" xmlns="http://www.w3.org/2000/svg" xmlns:xlink="http://www.w3.org/1999/xlink" x="0px" y="0px"
	 viewBox="0 0 1920 1080" style="enable-background:new 0 0 1920 1080;" xml:space="preserve">
<style type="text/css">
	.st0{fill:#F2F2F2;}
	.st1{fill:none;stroke:#F2F2F2;stroke-width:13;stroke-miterlimit:10;}
</style>
<g>
	<rect x="670.75" y="855.88" class="st0" width="152.68" height="8.93"/>
	<g>
		<ellipse class="st1" cx="1351.39" cy="948.28" rx="78.76" ry="87.06"/>
		<rect x="1215.45" y="851.61" class="st0" width="8.51" height="191.38"/>
		<path class="st1" d="M826.1,854.61c-1.49,37.61-0.97,70.02,0.21,96.18c0.86,19,2.22,38.31,15.23,56.5
			c3.06,4.27,9.79,13.47,22.12,20.24c28.96,15.9,59.6,2.35,62.34,1.08c14.4-6.65,22.73-16.73,24.49-18.93
			c2.04-2.54,6.2-8.11,9.5-16.13c4.38-10.64,4.89-19.82,5.1-24.33c0.74-15.95,1.91-58.79,2.17-116.42"/>
		<rect x="713.65" y="864.82" class="st0" width="9.81" height="179.52"/>
		<path class="st1" d="M489.84,1008.32c7.81,5.6,18.31,12.04,31.51,17.41c12.43,5.06,25.57,10.4,43.02,9.61
			c8.38-0.38,21.6-0.99,33.93-10.21c2.87-2.15,19.2-14.36,18.78-33.02c-0.28-12.43-7.83-21.23-10.3-24.02
			c-9.74-11.02-19.6-11.1-55.74-22.22c-29.79-9.16-37.75-13.62-43.34-21.84c-1.88-2.76-7.16-11.35-6.34-22.59
			c1.11-15.16,12.56-24.69,16.04-27.58c20.23-16.83,48.28-12.15,59.7-10.24c8.77,1.46,23.95,5.19,40.59,16.21"/>
		<path class="st1" d="M1031.8,859.71c0,58.24,0,116.48,0,174.72c10.88,1.19,26.53,2.28,45.34,1.38
			c19.14-0.91,28.71-1.37,38.27-4.99c34.53-13.08,46.82-53.04,48.17-57.64c1.8-6.17,9.4-34.57-4.54-64.84
			c-3.2-6.96-13.21-28.68-36.35-39.63c-5.25-2.48-10.91-4.28-24.54-6.3C1082.55,860.1,1060.02,858.03,1031.8,859.71z"/>
	</g>
	<g>
		<path class="st0" d="M350.57,707.18c33.95,0,67.9,0,101.84,0c0-195.41,0-390.82,0-586.23c10.54-2.07,25.52-4.46,43.62-5.4
			c33.83-1.77,63.26-3.26,92.7,10.81c26.41,12.62,54.45,38.35,65.49,75.59c12.96,43.74-4.37,80.28-10.96,94.18
			c-15.6,32.9-39.16,51.04-54.53,62.59c-38.22,28.73-78.05,38.05-102.24,41.43c70.56,102.35,141.13,204.69,211.69,307.04
			c37.16,0,74.32,0,111.48,0c-63.95-91.54-127.9-183.08-191.85-274.62c8.15-4.77,19.55-11.73,32.74-20.78
			c13.83-9.48,42.88-29.41,61.78-49.47c39.74-42.21,46.19-97.44,47.26-108.07c0.93-9.29,7-81.48-43.62-142.3
			c-49-58.87-119.32-68.86-154.5-73.85c-11.88-1.69-16.72-1.52-87.25-1.8c-53.49-0.21-96.59-0.46-123.66-0.63
			C350.57,259.5,350.57,483.34,350.57,707.18z"/>
		<g>
			<path class="st0" d="M1067.91,661.04c-15.15,19.71-29.35,35.32-40.59,46.83c-24.38,24.96-44.13,40.18-57.56,50.43
				c-17.15,13.1-27.06,19.1-38.78,24.02c-6.38,2.68-17.89,6.96-33.02,9.31c-9.9,1.54-39.13,6.07-55.53-6.7
				c-1.82-1.42-5.58-4.34-8.46-9.47c-4.37-7.79-4.47-16.66-4.47-17.15c0-5.44,1.3-8.92-0.61-10.21c-1.44-0.97-3.91-0.17-5.45,0.9
				c-4.56,3.18-4.08,10.99-3.69,17.4c0.25,4.06,0.58,9.39,3.08,15.62c8.01,19.91,29.66,27.74,35.14,29.72
				c7.22,2.61,13.01,3.37,17.27,3.9c31.2,3.91,57.03-8.05,68.46-13.51c2.62-1.25,12-5.82,27.57-16.81
				c9.71-6.85,34.39-25.08,73.31-69.35c11.15-12.69,25.98-30.36,42.41-52.54c4.41-4.28,8.83-8.55,13.24-12.83
				c31.6-40.55,63.21-81.1,94.81-121.65c-9.22,22.95-18.23,47.7-26.63,74.22c-6.01,18.95-11.23,37.31-15.78,54.97
				c-1.38,3.76-2.76,7.52-4.14,11.29c-4.28,17.72-6.27,32.78-7.27,43.83c-3.04,33.49,1.62,44.99,6.01,52.01
				c2.15,3.44,4.5,7.2,9.14,10.43c17.06,11.9,42.36,0.84,48.47-2.1c9.25-4.45,15.21-9.84,17.57-12.01
				c35.88-32.95,56.65-60.04,56.65-60.04c14.2-18.52,31.07-41.72,49.17-69.31c6.92-0.4,12.62,0.05,16.64,0.56
				c6.09,0.78,11.58,1.53,17.49,4.95c3.63,2.1,6.86,3.96,7.88,7.36c1.53,5.1-2.86,10.48-6.66,15.01
				c-11.52,13.74-17.28,20.61-22.72,26.42c-6.74,7.2-16.16,17.27-23.02,31.82c-4.42,9.36-10.31,22.3-6.97,37.53
				c1.08,4.93,3.26,14.84,11.81,20.71c11.8,8.1,27.74,3.06,33.63,1.2c3.22-1.02,6.87-2.5,13.18-6.19
				c15.84-9.27,26.56-19.64,31.36-24.43c17.61-17.58,31.5-35.75,40.59-48.63c-4.33,10.75-7.5,19.92-9.69,26.72
				c-5.92,18.35-6.15,23.64-5.3,28.67c0.55,3.28,1.95,11.53,8.63,17.86c12.12,11.47,31.45,7,35.75,6c3.58-0.83,7.04-2.05,11.72-4.33
				c12.89-6.28,20.4-13.46,34.34-26.48c0,0,27.76-25.92,41.77-48.66c1.03-1.67,1.34-3.63,1.36-3.78c0.19-1.26,0.4-2.64-0.43-3.8
				c-0.96-1.35-2.84-1.75-4.24-1.5c-1.92,0.35-3.11,1.97-3.43,2.4c-6.01,8.03-41.27,43.46-60.71,59.37
				c-8.97,7.34-16.7,12.27-24.76,10.58c-6.8-1.42-10.68-6.88-10.91-7.2c-2.37-3.44-3.42-7.87-2.27-17.11
				c1.86-14.94,7.27-25.44,7.27-25.44c7.85-15.24,20.49-40.99,37.26-73.93c9.21-0.74,16.5-1.24,20.92-1.52
				c0,0,14.23-0.93,40.43-6.06c1.69-0.33,8.26-1.69,9.94-5.6c0.18-0.42,0.6-1.44,0.21-2.43c-0.78-1.94-4.15-2.27-5.45-2.4
				c-7.87-0.77-53.09,2.39-57.56,2.7c4.89-8.24,9.27-14.77,12.42-19.29c11.11-15.92,16.67-23.87,21.85-30.37
				c0.32-0.4,1.6-2.01,2.99-4.38c2.49-4.27,6.45-11.05,3.94-16.21c-1.47-3.02-4.58-4.32-7.88-5.7c-0.49-0.2-6-2.46-10.91-1.8
				c-8.62,1.16-13.96,11.15-16.36,15.61c-7.97,14.84-19.22,35.16-32.72,60.34c-8-0.96-14.17,0.19-17.87,1.2
				c-5.07,1.38-9.11,2.54-11.21,6.3c-1.87,3.35-1.96,8.38,0.61,10.81c0.59,0.56,1.63,1.28,7.27,1.8c3.99,0.37,7.32,0.37,9.68,0.29
				c-4.96,9.34-12.18,21.82-22.1,35.73c-3.9,5.47-4.73,6.27-39.99,46.23c0,0-13.7,15.53-42.33,36.51c-1.01,0.74-3.94,2.82-8.06,3.3
				c-1.13,0.13-3.19,0.35-5.52-0.48c-3.72-1.32-5.58-4.41-6.18-5.41c-3.23-5.35-1.92-11.81-1.21-14.71
				c5.79-23.9,22.11-48.93,22.11-48.93c10.08-15.46,28.03-42.97,37.11-50.06c0.43-0.34,3.28-2.53,5.3-6.38
				c0.98-1.87,3.1-5.91,1.51-10.06c-0.98-2.56-2.91-3.98-3.64-4.5c-3.44-2.47-7.45-2.36-8.86-2.33c-6.68,0.14-28.61-0.1-58.69-0.23
				c4.35-7.58,8.34-13.44,11.21-17.41c4.81-6.67,10.29-13.38,13.33-23.72c1.13-3.84,1.45-6.56,0-8.11c-1.25-1.34-4.11-2.1-11.81,0.6
				c-24.55,8.6-38.31,31.35-44.23,41.13c-1.92,3.17-4.3,7.44-2.73,11.41c2.19,5.53,10.57,6.71,12.12,6.9
				c-17.95,29.67-35.39,53.63-49.68,71.75c0,0-37.42,47.44-78.76,63.87c-3.81,1.51-7.49,1.3-7.49,1.3s-4.52-0.26-8.26-2.73
				c-5.34-3.52-6.36-12.02-6.36-24.32c0-17.22,1.99-30.65,2.8-35.95c1.27-8.28,3.09-19.14,5.66-31.9c1.12-3.6,2.24-7.2,3.36-10.8
				c3.85-16.07,9.58-36.87,18.18-60.64c7.53-20.83,11.3-31.24,18.48-45.03c13.44-25.81,24.24-53.15,40.29-77.45
				c1-1.51,4.08-6.07,2.42-9.01c-1.31-2.31-4.96-2.55-7.88-2.7c-11.66-0.61-20.72,5.74-22.72,7.2c-4.81,3.51-7.66,7.14-8.18,7.81
				c-29.25,37.24-61,72.51-90.05,109.9c-10.44,13.43-25.97,32.69-46.27,55.22C1076.59,651.83,1072.25,656.44,1067.91,661.04z"/>
			<path class="st0" d="M887.36,721.68c2.32-0.16,4.48-2.12,4.85-4.2c0.33-1.84-0.81-3.44-1.17-3.98
				c-3.23-4.95-1.05-14.41,0.1-19.43c3.02-13.12,15.5-25.18,28.32-31.82c3.11-1.61,11.32-5.55,32.88-7.6
				c21.98-2.09,38.77-0.41,49.2,0.6c54.03,5.24,39.48,2.51,66.36,5.81c0,0,72.94,8.93,132.4,13.26c1.37,0.1,13.62,0.87,27.55-4.26
				c12.59-4.63,16.28-10.3,17.69-13.13c2.52-5.06,2.81-11.19,1.39-11.79c-0.9-0.38-2.09,1.63-6.36,5.1c0,0-2.65,2.16-6.36,4.5
				c0,0-5.23,3.3-12.27,5.55c-15.46,4.95-55.75-0.39-69.32-2.13c-18.34-2.35-14.11-1.48-24.72-2.97c-29.22-4.1-46.4-8.6-68.05-13.21
				c-12.45-2.65-39.5-8.13-72.44-12.3c-36.57-4.63-57.64-4.75-77.43,4.44c-10.87,5.05-16.94,10.85-20.11,14.34
				c-11.8,13-14.19,27.87-14.92,32.81c-1.29,8.71-0.56,16.03,0.28,20.87c0,0,1.5,12.84,8.05,18.02
				C885.23,721.7,886.74,721.72,887.36,721.68z"/>
		</g>
	</g>
</g>
</svg>
